<svg t="1753928867328" class="icon" viewBox="0 0 1034 1024" version="1.1"
  xmlns="http://www.w3.org/2000/svg" p-id="2817" xmlns:xlink="http://www.w3.org/1999/xlink"
  width="201.953125" height="200">
  <path
    d="M468.14896853 64.07731093c-14.1901312 17.17752747-28.7536864 34.72847893-32.3012192 39.02285974-3.5475328 4.29438187-9.52232427 11.38944747-13.06985706 15.87054186-11.76287147 14.75026773-28.19354987 31.3676576-31.74108266 32.3012192-2.05383467 0.56013653-5.04123093-0.9335616-7.6552032-3.73424533-4.66780587-4.8545184-5.41465493-15.8705408-1.86712215-25.39286613 2.6139712-6.72164053 4.8545184-36.7823136 2.61397121-36.7823136-0.9335616 0-24.27259307 23.15231893-51.90600534 51.53258133-53.95984 55.26682667-61.80175467 61.9884672-116.32173227 97.8372192L183.78621121 256.017504l-7.28177815 15.1236928c-3.9209568 8.21533867-9.52232427 20.3516352-12.32300906 27.07327573-5.60136747 13.2565696-36.96902613 74.68490027-42.010256 82.15339094-1.68041067 2.6139712-5.04123093 8.4020512-7.28177813 13.06985706-2.42725973 4.66780587-6.72164053 11.949584-9.7090368 16.4306784-2.98739627 4.4810944-5.41465493 8.4020512-5.41465494 8.96218774 0 0.373424-6.161504 11.0160224-13.62999467 23.71245653-21.09848427 35.28861547-20.53834773 34.1683424-16.05725333 47.23819947 2.2405472 5.97479253 5.78808 15.1236928 8.02862721 20.3516352 2.42725973 5.04123093 5.78808 13.06985707 7.65520213 17.73766293 1.86712213 4.66780587 5.78808 13.62999467 8.7754752 20.16492373 2.80068373 6.34821653 5.22794347 12.50972053 5.22794346 13.62999467 0 1.12027307 1.12027307 4.29438187 2.42725867 6.90835307 7.4684896 14.75026773 23.899168 54.5199776 28.19354987 68.5233952 1.49369813 5.22794347 3.73424533 14.5635552 4.85451947 20.53834773 2.98739627 16.61738987 6.90835307 40.7032704 10.08246079 60.6814816 1.49369813 9.7090368 4.10766933 23.15231893 5.60136747 29.87396053 1.49369813 6.72164053 3.5475328 16.8041024 4.8545184 22.40546987 1.12027307 5.60136747 4.66780587 16.99081493 7.84191466 25.2061536 11.76287147 30.80752107 12.69643307 33.6082048 12.69643307 36.4088896-0.18671253 3.36082027-30.9942336 44.06409067-50.4123072 66.46956053-9.14890027 10.45588587-24.64601707 30.060672-27.0732768 34.1683424-0.74684907 1.49369813-0.373424 3.17410773 1.12027413 4.10766934 1.49369813 0.9335616 25.39286613 1.68041067 53.39970347 1.68041066 59.374496 0 53.77312853 2.42725973 57.69408533-25.20615466 1.3069856-9.14890027 3.36082027-23.525744 4.48109441-31.74108267 1.3069856-8.21533867 3.36082027-19.0446496 4.8545184-24.08587947 1.49369813-4.8545184 2.6139712-10.82931093 2.61397119-13.25657066 0-13.62999467 25.76629013-50.22559573 60.86819414-86.2610592 9.14890027-9.52232427 7.28177813-9.3356128 58.62764587-5.04123094l36.40888959 2.98739627 41.07669441-20.9117728c63.85558933-32.67464427 72.25764053-36.7823136 81.21982933-40.14313387 14.00341867-5.41465493 20.72506027-5.41465493 30.43409706-0.56013653 10.82931093 5.41465493 55.8269632 35.848752 60.30805654 40.88998293 4.29438187 4.8545184 4.29438187 5.04123093-21.6586208 36.7823136-41.07669547 50.4123072-68.33668373 79.91284373-104.55885974 112.77419947-13.2565696 11.949584-17.17752747 16.61738987-15.68382932 18.29780053 1.12027307 1.12027307 9.52232427 2.42725973 18.67122452 2.80068374 71.697504 2.98739627 80.84640427 2.98739627 84.5806496 1.12027306 3.73424533-2.05383467 3.9209568-3.73424533 3.92095787-25.01944106 0-15.4971168 0.74684907-24.08588053 2.42725867-26.1397152 1.12027307-1.68041067 7.0950656-6.72164053 12.8831456-11.0160224 19.79149867-14.93698027 41.636832-32.11450667 43.50395413-34.35505494 3.9209568-4.4810944 32.48793173-25.01944107 34.91519147-25.01944106 3.36082027 0 32.67464427 25.95300267 39.20957227 34.72847893 2.80068373 3.9209568 5.22794347 8.21533867 5.22794346 9.7090368 0 1.3069856-3.5475328 8.4020512-7.84191467 15.4971168-4.4810944 7.28177813-9.52232427 15.8705408-11.38944746 19.0446496-2.05383467 3.36082027-5.04123093 7.65520213-7.0950656 9.89574933-1.86712213 2.05383467-3.5475328 4.4810944-3.5475328 5.2279424 0 1.49369813-11.38944747 20.53834773-29.31382294 48.7318976-24.27259307 38.64943573-25.39286613 40.3298464-23.52574399 42.19696854 3.5475328 3.5475328 26.69985173 5.22794347 67.02969813 5.414656 30.060672 0 39.95642133-0.56013653 42.75710506-2.42725974 2.98739627-2.2405472 3.17410773-4.4810944 2.2405472-19.23136213-0.74684907-9.14890027-1.86712213-24.27259307-2.42725866-33.6082048l-1.30698667-17.17752747 12.88314561-13.6299936c6.90835307-7.65520213 24.64601707-25.57957867 39.02286079-40.14313386 14.37684373-14.37684373 28.3802624-28.94039893 31.18094507-32.11450774l5.04123093-5.97479146-3.36082027-8.0286272c-1.86712213-4.29438187-6.161504-13.81670613-9.52232426-20.91177174-3.36082027-7.28177813-7.4684896-16.8041024-9.3356128-21.47190933s-7.0950656-16.4306784-11.57616-26.1397152c-8.4020512-17.55095147-8.4020512-18.111088-10.82930987-48.54518507-1.3069856-16.99081493-2.80068373-45.5577888-3.1741088-63.6688768l-0.9335616-32.8613568 18.29780053-14.5635552c10.26917333-8.0286272 25.2061536-19.9782112 33.42149334-26.32642773 8.21533867-6.53492907 19.23136213-15.1236928 24.45930454-19.4180736 8.0286272-6.34821653 10.82931093-7.4684896 18.29780053-7.46849067 4.8545184 0 11.76287147 1.3069856 15.4971168 2.80068374 3.5475328 1.49369813 8.77547627 2.80068373 11.38944746 2.80068373 2.42725973 0 7.84191467 0.9335616 11.76287254 2.05383573 6.53492907 2.05383467 8.4020512 1.68041067 27.25998827-6.7216416 26.32642773-11.57616 41.82354453-19.23136213 45.74450132-22.77889493 1.68041067-1.49369813 3.36082027-5.78808 4.10766934-9.52232427 0.56013653-3.73424533 1.86712213-12.8831456 2.80068373-19.9782112 1.12027307-7.28177813 2.80068373-16.8041024 3.73424533-21.47190826 1.12027307-4.66780587 3.73424533-18.85793707 5.97479147-31.74108267 2.05383467-12.8831456 5.22794347-29.87396053 6.7216416-37.90258667 1.86712213-10.08246187 2.2405472-15.31040427 0.9335616-16.61739093-1.3069856-1.3069856-6.72164053-0.373424-17.17752747 2.98739627-8.4020512 2.6139712-16.4306784 4.8545184-17.737664 4.8545184-1.49369813 0-5.41465493 1.12027307-8.7754752 2.6139712-7.84191467 3.17410773-17.55095147 6.53492907-24.8327296 8.58876373-2.98739627 0.9335616-8.0286272 2.42725973-11.20273492 3.5475328-2.98739627 0.9335616-10.82931093 3.73424533-16.99081494 5.78808l-11.57616 4.10766933-15.4971168 23.525744c-8.58876373 13.06985707-16.05725333 24.45930453-16.61738987 25.5795776-1.12027307 2.42725973-25.01944107 39.0228608-30.6208096 47.23819947-5.60136747 7.84191467-40.3298464 33.42149333-59.00107093 43.31724267-2.42725973 1.3069856-12.69643307 7.65520213-22.40546987 14.1901312-9.89574933 6.34821653-21.47190933 13.44328213-25.76629119 15.68382826-4.29438187 2.2405472-8.4020512 4.8545184-8.96218774 5.78808-1.68041067 2.80068373-13.06985707 1.86712213-19.79149867-1.49369813-8.96218773-4.4810944-9.7090368-4.8545184-37.15573759-16.43067733-25.57957867-10.82931093-71.13736747-33.04806827-89.43516801-43.69066667-5.60136747-3.17410773-12.32300907-6.90835307-14.93698027-8.21533973-2.6139712-1.12027307-5.78808-3.17410773-7.09506559-4.48109334-1.3069856-1.3069856-3.36082027-2.42725973-4.29438187-2.42725973-1.49369813 0-11.949584-5.97479253-33.42149226-18.67122453-49.85217067-29.87396053-81.77996587-52.2794304-84.58064961-60.12134507-1.12027307-3.17410773 17.737664-34.1683424 54.70668907-89.24845547 15.8705408-23.899168 17.36423893-27.25998827 15.12369173-33.98162986-1.12027307-3.17410773-2.05383467-8.21533867-2.05383467-11.01602347 0-5.04123093-5.78808-31.9277952-9.52232426-44.06409067-1.12027307-3.36082027-2.6139712-10.08246187-3.5475328-14.93698026-2.6139712-14.1901312-6.90835307-32.67464427-9.14890027-39.7697088-2.80068373-8.96218773-2.6139712-24.27259307 0.56013653-30.24738454 1.49369813-2.80068373 3.17410773-7.65520213 3.92095787-11.01602346 0.74684907-3.5475328 2.05383467-7.4684896 2.80068373-9.14890027 0.9335616-1.49369813 4.66780587-12.50972053 8.40205121-24.272592s7.84191467-24.45930453 9.14890026-28.0068384c1.49369813-3.5475328 4.10766933-11.57616 5.78807893-17.73766293 1.86712213-6.161504 4.4810944-13.44328213 5.78808-16.24396587 2.98739627-5.60136747 3.36082027-12.69643307 0.9335616-12.69643307-0.9335616 0-13.44328213 14.00341867-27.63341333 30.9942336z"
    p-id="2818" fill="#1296db"></path>
</svg>